<svg xmlns="http://www.w3.org/2000/svg" width="144.875" height="38.268" viewBox="0 0 144.875 38.268"><g data-name="Group 546"><g data-name="Group 542"><g data-name="Group 541"><g data-name="Group 540" fill="#00b87c"><path data-name="Path 4404" d="M38.677 26.646l-4.486-13.432q-.3-.927-.476-1.591a7.855 7.855 0 0 1-.225-1.115c-.284.017-.548.029-.789.037s-.473.022-.69.038V8.929h6.967v1.378a1.928 1.928 0 0 0-1.491.451q-.388.452-.038 1.705.377 1.5.8 2.906t.827 2.857q.276.953.514 1.767t.513 2.017h.051l.275-1.027q.175-.651.389-1.354.211-.7.376-1.29l.238-.865q.5-1.6.989-3.145t.928-2.932q.438-1.391.764-2.493h1.754q.325 1.053.7 2.243t.777 2.431q.4 1.24.777 2.43t.7 2.193q.3.953.564 1.93t.514 1.979h.05q.225-.776.463-1.629t.514-1.754q.326-1.051.577-1.9t.463-1.566q.213-.714.389-1.354t.35-1.265a10.331 10.331 0 0 1 .389-1.14 3.791 3.791 0 0 1 .564-.99q-.428.026-1.015.037t-.94.038V8.933h5.463v1.378a2.835 2.835 0 0 0-1.14.314 2.477 2.477 0 0 0-.89.9 8.234 8.234 0 0 0-.777 1.817q-1.051 3.359-2.105 6.678t-2.13 6.628h-1.729l-3.257-9.6q-.277-.876-.489-1.7t-.439-1.6q-.15.777-.338 1.5t-.414 1.5l-3.107 9.9z"/><path data-name="Path 4405" d="M57.522 25.143a1.385 1.385 0 0 0 1.027-.314 1.526 1.526 0 0 0 .376-.889 10.168 10.168 0 0 0 .076-1.3v-4.686c0-.284.008-.6.025-.94s.041-.7.075-1.065c-.284.017-.593.033-.927.05s-.611.034-.828.05V14.42a12.764 12.764 0 0 0 1.867-.113 4.97 4.97 0 0 0 1.153-.288 2.349 2.349 0 0 0 .589-.326h1.128v9.2c0 .268-.005.589-.013.965a9.086 9.086 0 0 1-.087 1.09q.4-.05.864-.062t.764-.013v1.6h-6.089zm2.882-13.608a1.612 1.612 0 0 1-1.228-.538 1.976 1.976 0 0 1 .013-2.644 1.605 1.605 0 0 1 1.215-.552 1.558 1.558 0 0 1 1.215.552 2.053 2.053 0 0 1 .013 2.644 1.565 1.565 0 0 1-1.228.538z"/><path data-name="Path 4406" d="M64.99 26.471v-1.328a1.431 1.431 0 0 0 1.039-.314 1.485 1.485 0 0 0 .389-.889 10.181 10.181 0 0 0 .075-1.3V11.814q0-.426.025-.94t.075-1.065q-.426.026-.927.05t-.852.05V8.278a12.739 12.739 0 0 0 1.88-.113 4.957 4.957 0 0 0 1.14-.288 2.392 2.392 0 0 0 .589-.326h1.152v11.577h1.128l2.23-2.455q.351-.376.614-.665a3.712 3.712 0 0 1 .539-.488l-1.453.025v-1.6h5.262v1.328a4.141 4.141 0 0 0-1.554.439 5.769 5.769 0 0 0-1.227.839q-.527.477-.928.9l-1.7 1.905a2.625 2.625 0 0 1 .765.526 9.936 9.936 0 0 1 .839.952l1.7 2.231q.15.175.414.513t.6.7a3.652 3.652 0 0 0 .739.614 1.5 1.5 0 0 0 .8.251v1.328h-2.681a1.919 1.919 0 0 1-1.391-.614 15.2 15.2 0 0 1-1.366-1.617q-.5-.7-1-1.415t-.915-1.3q-.413-.59-.689-.915l-.727.025v2.255c0 .268-.008.589-.025.965s-.042.739-.075 1.09c.267-.033.552-.054.852-.062s.56-.013.777-.013v1.6z"/><path data-name="Path 4407" d="M79.75 25.143a1.386 1.386 0 0 0 1.027-.314 1.532 1.532 0 0 0 .376-.889 10.18 10.18 0 0 0 .075-1.3v-4.686c0-.284.008-.6.025-.94s.041-.7.075-1.065c-.284.017-.593.033-.927.05s-.61.034-.827.05V14.42a12.774 12.774 0 0 0 1.867-.113 4.982 4.982 0 0 0 1.153-.288 2.386 2.386 0 0 0 .589-.326h1.127v9.2c0 .268 0 .589-.012.965a9.3 9.3 0 0 1-.088 1.09q.4-.05.865-.062t.764-.013v1.6H79.75zm2.881-13.608a1.613 1.613 0 0 1-1.228-.538 1.976 1.976 0 0 1 .013-2.644 1.606 1.606 0 0 1 1.215-.552 1.558 1.558 0 0 1 1.216.552 2.054 2.054 0 0 1 .012 2.644 1.563 1.563 0 0 1-1.228.538z"/><path data-name="Path 4408" d="M87.618 25.092a2.375 2.375 0 0 0 1.078-.238 1.171 1.171 0 0 0 .526-.751 5.807 5.807 0 0 0 .15-1.491v-10c0-.418.013-.818.038-1.2s.046-.685.063-.9q-.426.026-.978.037c-.367.009-.66.022-.877.038V8.933l6.817-.025a12.508 12.508 0 0 1 4.247.664 8.375 8.375 0 0 1 3.07 1.867 8.128 8.128 0 0 1 1.867 2.782 8.929 8.929 0 0 1 .639 3.383 9.328 9.328 0 0 1-.564 3.157 8.536 8.536 0 0 1-1.729 2.87 8.35 8.35 0 0 1-3.007 2.067 11.213 11.213 0 0 1-4.373.777h-6.967zm4.912-2.355q0 .676-.025 1.253a9.008 9.008 0 0 1-.075.9q.4 0 .877.013l.927.025c.3.008.526.012.677.012a5.3 5.3 0 0 0 4.4-2.13 6.985 6.985 0 0 0 1.115-2.243 9.342 9.342 0 0 0 .376-2.669 9.936 9.936 0 0 0-.765-4.147 5.587 5.587 0 0 0-2.192-2.531 6.887 6.887 0 0 0-3.534-.89 2.11 2.11 0 0 0-1.1.2 1.141 1.141 0 0 0-.539.752 6.121 6.121 0 0 0-.138 1.478z"/><path data-name="Path 4409" d="M112.427 26.872a6.655 6.655 0 0 1-3.233-.79 5.825 5.825 0 0 1-2.293-2.23 6.57 6.57 0 0 1-.839-3.371 7.474 7.474 0 0 1 .852-3.608 6.315 6.315 0 0 1 2.293-2.456 5.976 5.976 0 0 1 3.17-.877 6.449 6.449 0 0 1 3.208.8 5.991 5.991 0 0 1 2.267 2.23 6.557 6.557 0 0 1 .84 3.383 7.734 7.734 0 0 1-.815 3.621 5.938 5.938 0 0 1-5.45 3.3zm.125-1.529a2.15 2.15 0 0 0 1.729-.7 4.017 4.017 0 0 0 .84-1.791 10.468 10.468 0 0 0 .238-2.243 12.289 12.289 0 0 0-.163-1.98 7.722 7.722 0 0 0-.514-1.817 3.485 3.485 0 0 0-.927-1.3 2.093 2.093 0 0 0-1.4-.488 2.354 2.354 0 0 0-1.754.726 4.121 4.121 0 0 0-.94 1.78 8.789 8.789 0 0 0-.288 2.28 10.728 10.728 0 0 0 .326 2.644 5.068 5.068 0 0 0 1.027 2.1 2.229 2.229 0 0 0 1.826.789z"/><path data-name="Path 4410" d="M126.585 26.872a6.494 6.494 0 0 1-3.094-.752 5.634 5.634 0 0 1-2.256-2.193 6.775 6.775 0 0 1-.839-3.471 7.231 7.231 0 0 1 .476-2.618 7.045 7.045 0 0 1 1.341-2.205 6.377 6.377 0 0 1 2.067-1.529 6.178 6.178 0 0 1 2.656-.564 6.4 6.4 0 0 1 2.581.464 3.8 3.8 0 0 1 1.6 1.228 2.713 2.713 0 0 1 .552 1.616 1.867 1.867 0 0 1-.389 1.178 1.394 1.394 0 0 1-1.115.526 1.266 1.266 0 0 1-1.19-.489 1.772 1.772 0 0 1-.339-.964 2.145 2.145 0 0 1 .075-.539 1.685 1.685 0 0 1 .251-.539 1.225 1.225 0 0 0-.576-.664 2.8 2.8 0 0 0-.827-.288 2.6 2.6 0 0 0-.677-.05 2.882 2.882 0 0 0-2.28 1.252 5.782 5.782 0 0 0-.9 3.509 7.991 7.991 0 0 0 .388 2.543 4.256 4.256 0 0 0 1.19 1.88 3.071 3.071 0 0 0 2.055.739 4.166 4.166 0 0 0 2.13-.539 4.99 4.99 0 0 0 1.679-1.466l1 .928a7.169 7.169 0 0 1-1.78 1.829 6.383 6.383 0 0 1-1.917.915 7.106 7.106 0 0 1-1.862.263z"/><path data-name="Path 4411" d="M139.266 26.872a7.453 7.453 0 0 1-2.156-.3 5.5 5.5 0 0 1-1.6-.727l.075.8h-1.629l-.125-4.31h1.353a2.91 2.91 0 0 0 .6 1.541 3.568 3.568 0 0 0 1.366 1.078 4.393 4.393 0 0 0 1.867.388 3.125 3.125 0 0 0 .965-.15 1.8 1.8 0 0 0 .777-.489 1.225 1.225 0 0 0 .313-.864 1.2 1.2 0 0 0-.363-.9 3.7 3.7 0 0 0-1.015-.651q-.652-.3-1.529-.627-.777-.3-1.554-.626a7.356 7.356 0 0 1-1.428-.789 3.711 3.711 0 0 1-1.053-1.141 3.194 3.194 0 0 1-.4-1.654 3.874 3.874 0 0 1 .251-1.353 3.749 3.749 0 0 1 .8-1.265 3.911 3.911 0 0 1 1.416-.94 5.635 5.635 0 0 1 2.117-.351 6.384 6.384 0 0 1 1.529.213 4.04 4.04 0 0 1 1.5.714l-.025-.8h1.629v4.411h-1.353a4.026 4.026 0 0 0-.551-1.566 3.138 3.138 0 0 0-1.128-1.091 3.344 3.344 0 0 0-1.679-.4 2.287 2.287 0 0 0-1.353.388 1.3 1.3 0 0 0-.551 1.14 1.345 1.345 0 0 0 .426 1.028 3.435 3.435 0 0 0 1.152.676l1.579.6a12.361 12.361 0 0 1 2.143.952 4.939 4.939 0 0 1 1.541 1.328 3.15 3.15 0 0 1 .576 1.93 3.39 3.39 0 0 1-.651 2.142 3.94 3.94 0 0 1-1.679 1.253 5.713 5.713 0 0 1-2.153.412z"/></g></g><text data-name="Algerian Administrative Documents" transform="translate(31.875 35.268)" fill="#414864" font-size="7.174" font-family="NunitoSans-Light, Nunito Sans" font-weight="300"><tspan x="0" y="0">Algerian Administrative Documents</tspan></text></g><g data-name="Group 545" transform="translate(-636.263 -2800.522)"><path data-name="Rectangle 1598" fill="#666c82" d="M636.263 2810.986h17.355v26.032h-17.355z"/><path data-name="Rectangle 1599" fill="#8b91a1" d="M637.709 2809.54h17.355v26.032h-17.355z"/><g data-name="Group 543"><path data-name="Path 4412" d="M665.3 2806.658l-6.136 6.136-1.799-1.794a.433.433 0 0 0-.688.095 1.433 1.433 0 0 1-.325.413 1.446 1.446 0 0 1-1.978-2.108 1.409 1.409 0 0 1 .34-.253.436.436 0 0 0 .1-.693l-1.795-1.795 1.795-1.795a.433.433 0 0 1 .688.095 1.445 1.445 0 0 0 2.233.416 1.448 1.448 0 0 0-.27-2.364.437.437 0 0 1-.1-.693l1.795-1.795z" fill="#00b87c"/><path data-name="Path 4413" d="M656.51 2816.771v17.355h-17.355v-26.033h8.678v2.507a.457.457 0 0 0 .579.443 1.416 1.416 0 0 1 .4-.057 1.446 1.446 0 1 1-.4 2.836.458.458 0 0 0-.584.442v2.507h2.538a.433.433 0 0 1 .419.554 1.447 1.447 0 1 0 2.828.429 1.46 1.46 0 0 0-.06-.415.436.436 0 0 1 .414-.568z" fill="#f5f6f8"/></g><g data-name="Group 544" fill="none" stroke="#b3b5c1" stroke-linecap="round" stroke-miterlimit="10" stroke-width=".289"><path data-name="Path 4414" d="M640.476 2815.346s1.163-1.68 2.162-.8c.743.652 1.81 1.161 2.562.268a1.4 1.4 0 0 1 2.13-.062"/><path data-name="Path 4415" d="M650.262 2821.638s.8-.954 1.488-.457c.512.37 1.247.659 1.764.152a1.1 1.1 0 0 1 1.467-.035"/><path data-name="Path 4416" d="M640.688 2822.012s1.472-1.679 2.737-.8c.941.651 2.293 1.16 3.245.267a2.1 2.1 0 0 1 2.7-.062"/><path data-name="Path 4417" d="M641.116 2826.063s2.333-1.68 4.337-.8c1.49.652 3.632 1.16 5.14.268a4.884 4.884 0 0 1 4.274-.062"/></g><circle data-name="Ellipse 106" cx="2.289" cy="2.289" r="2.289" transform="translate(650.286 2828.325)" fill="none" stroke="#b3b5c1" stroke-linecap="round" stroke-miterlimit="10" stroke-width=".289"/><circle data-name="Ellipse 107" cx="1.817" cy="1.817" r="1.817" transform="translate(650.759 2828.797)" fill="none" stroke="#b3b5c1" stroke-linecap="round" stroke-miterlimit="10" stroke-width=".289"/><text transform="translate(651.81 2831.01)" fill="#b3b5c1" font-size=".98" font-family="Lora-Medium, Lora" font-weight="500"><tspan x="0" y="0">WD</tspan></text></g></g></svg>