<svg xmlns="http://www.w3.org/2000/svg" viewBox="0 0 140.01 143.01"><title>Fichier 2</title><g data-name="Calque 2"><g data-name="Calque 1"><path d="M111.47 141.65h1.07v1.26h-1.07zm11.21-3.29c0 2.62-1.85 4.51-4.79 4.51H115v-9h2.85c2.98-.02 4.83 1.87 4.83 4.49zm-.94 0a3.55 3.55 0 0 0-3.76-3.78h-2v7.56h2a3.55 3.55 0 0 0 3.76-3.78zm2.53 1.31a3.15 3.15 0 0 1 3.19-3.39c1.9 0 3 1.4 3 3.34v.17h-5.33v.06a2.3 2.3 0 0 0 2.28 2.45 2 2 0 0 0 2-1.48h.95a2.88 2.88 0 0 1-3 2.19 3.08 3.08 0 0 1-3.09-3.34zm5.35-.51a2.07 2.07 0 0 0-2.17-2.17 2.25 2.25 0 0 0-2.27 2.17zm7.89-2.73l-2.82 6.44h-.82l-2.82-6.44h.95l2.27 5.51 2.29-5.51zM24.32 124.38v4.4H2.5v-4l14.55-16.61H2.5v-4.4h21.64v4L9.66 124.38zM45.07 117v11.74H40v-2.51h-.11c-.63 1-2.48 2.83-6.16 2.83s-6.24-2.15-6.24-5.37c0-3.5 2.75-6.19 10.66-6.19H40v-.5a3 3 0 0 0-3.3-3.15c-2 0-3.23 1-3.38 2.61h-5c.07-4.08 3.49-6.33 8.35-6.33 5.43.01 8.4 2.55 8.4 6.87zm-5 4.87v-1.29H38.2c-4.26 0-5.49 1.25-5.49 2.76 0 1.32 1.11 2.14 2.86 2.14 2.49.04 4.43-1.57 4.43-3.57zm8.71-2.29c0-5.51 3.34-9.44 8.73-9.44 2.56 0 5.12 1.18 6.05 3v-9.45h5.24v25h-5.21V126c-1 2-3.53 3.25-6.05 3.25-5.42-.01-8.76-3.98-8.76-9.67zm5.16 0c0 3.44 2 5.59 4.75 5.59s4.83-2.12 4.83-5.41v-.21c0-3.22-2-5.33-4.83-5.33s-4.75 2.14-4.75 5.36zm49.96-1.79v11h-5.23V118.4c0-2.5-1.3-3.83-3.27-3.83-2.56 0-3.9 1.54-3.9 4.33v9.88h-5.23V118.4c0-2.5-1.34-3.83-3.3-3.83-2.53 0-3.9 1.54-3.9 4.33v9.88h-5.23V110.6h5.23v3a5.84 5.84 0 0 1 5.68-3.5 6.12 6.12 0 0 1 6 3.54 6.77 6.77 0 0 1 6.25-3.5c4.08 0 6.9 2.61 6.9 7.65zm4.42-14.7h6.34v4.69h-6.34zm.55 7.51h5.24v18.18h-5.24zm28.62 7.02v11.16h-5.23v-10.09c0-2.54-1.3-4.12-3.34-4.12-2.64 0-4.46 1.76-4.46 5v9.23h-5.23v-18.2h5.23v3.4a6.21 6.21 0 0 1 6-3.83c4.54-.03 7.03 3.01 7.03 7.45zM132.14 3.08h-1.34v4h-.65v-4h-1.39V2.5h3.38zm4.73.72h-.06l-1.4 3.25H135l-1.45-3.38h-.06v3.38h-.63V2.5h.83l1.5 3.58 1.53-3.58h.78v4.55h-.64z" fill="#303ab2"/><path d="M137.51 67.58v21.69h-15V88a23.22 23.22 0 0 1-7.5 1.24c-12.43 0-22.51-9.72-22.51-21.69s10.08-21.7 22.51-21.7a23.22 23.22 0 0 1 7.5 1.24 21.77 21.77 0 0 1 15 20.49z" fill="none" stroke="#307fe2" stroke-miterlimit="10" stroke-width="5"/><path d="M77.5 2.5a15.21 15.21 0 0 0-10.6 4.24L41.29 31.42H17.5A14.73 14.73 0 0 1 2.5 17a14.74 14.74 0 0 1 15-14.5h60z" fill="none" stroke="#303ab2" stroke-linejoin="round" stroke-width="5"/><path d="M92.5 17a14.17 14.17 0 0 1-4.39 10.22l-34.4 33.13L28.11 85a15.25 15.25 0 0 1-10.61 4.27 14.74 14.74 0 0 1-15-14.46 14.18 14.18 0 0 1 4.39-10.23l34.4-33.15L66.9 6.74a15.24 15.24 0 0 1 10.6-4.23A14.73 14.73 0 0 1 92.5 17z" fill="none" stroke="#303ab2" stroke-miterlimit="10" stroke-width="5"/><path d="M92.5 74.81a14.74 14.74 0 0 1-15 14.46h-60A15.25 15.25 0 0 0 28.11 85l25.6-24.69H77.5a14.74 14.74 0 0 1 15 14.5z" fill="none" stroke="#303ab2" stroke-linejoin="round" stroke-width="5"/><path d="M132.14 3.08h-1.34v4h-.65v-4h-1.39V2.5h3.38zm4.73.72h-.06l-1.4 3.25H135l-1.45-3.38h-.06v3.38h-.63V2.5h.83l1.5 3.58 1.53-3.58h.78v4.55h-.64z" fill="#303ab2"/></g></g></svg>