<svg xmlns="http://www.w3.org/2000/svg" width="135.639" height="264.918" viewBox="0 0 135.639 264.918"><g data-name="Group 196" transform="translate(-747.304 -92.842)"><path data-name="Path 458" d="M779.852 318.244l.148 21.021s14.293 20.215 52.067 18.377 42.533-18.989 42.533-18.989v-19.33s-34.309 38.941-94.748-1.079z" fill="#b4b5c1"/><ellipse data-name="Ellipse 71" cx="47.489" cy="25.528" rx="47.489" ry="25.528" transform="translate(779.796 293.256)" fill="#e1e2e5"/><ellipse data-name="Ellipse 72" cx="34.439" cy="18.513" rx="34.439" ry="18.513" transform="translate(795.108 298.19)" fill="#b4b5c1"/><path data-name="Path 459" d="M819.031 310.407c.565.411-1.8 11.537-2.756 13.34a4.852 4.852 0 0 1-4.254 2.587c-1.5 0-3.913-2.042-3.913-4.39s3.028-11.843 4.049-12.217 4.39-1.127 6.874.68z" fill="#404863"/><path data-name="Path 460" d="M830.057 299.109c-.952.272-2.041 3.369-1.157 4.8s12.047 9.12 14.157 9.154 6.67-1.259 5.99-3.914-9.631-7.18-9.631-9.937z" fill="#404863"/><path data-name="Path 461" d="M829.47 155.95s-11.5-.476-13.612 2.042 7.555 62.379 7.555 62.379l16.437-3.471s-.307-49.106-5-54.313a54.961 54.961 0 0 0-5.38-6.637z" fill="#404863"/><path data-name="Path 462" d="M840.947 213.658s-23.073 6.636-28.279 3.165c-3.982 2.042-2.655 94.639-2.655 94.639h12.047l1.974-78.747s.885-2.722 2.927-2.722 2.246 3.063 2.246 3.063l-.817 67.176h11.434z" fill="#8b91a0"/><path data-name="Path 463" d="M861.332 200.556s7.759 1.464 10.243.885 11.536-5.513 11.366-6.874-5.547-9.359-9.12-9.393-7.01 4.05-7.963 4.969-2.416 3.913-4.731 3.233-2.212 5.989.205 7.18z" fill="#f5bec3"/><path data-name="Path 464" d="M862.387 191.861s1.582.511 1.327 1.328-3.522-.97-3.624 2.348 2.348 4.747 1.684 5.411-16.488-.766-17.3-2.451c-.2.613.613 15.467-.306 17.918s-7.708 4.39-7.708 4.39.715-40.837 0-44.206-8.3-18.326-9.937-20.317 6.977-1.531 9.12-1.021 6.126 12.251 10.312 33.18c4.895 2.042 16.432 3.42 16.432 3.42z" fill="#8b91a0"/><path data-name="Path 465" d="M882.805 191.81l-17.594 8.1v-8.44l17.56-9.086z" fill="#404863"/><path data-name="Path 466" d="M817.092 156.623s-11.5 5.513-13.613 9.392-.884 59.894.749 61.8 7.878 1.106 8.44.544-.511-4.032.1-4.492 13.017 1.123 14.65.051.664-34.864-1.889-40.071-8.505-20.247-8.437-27.224z" fill="#8b91a0"/><path data-name="Path 467" d="M866.777 191.946l-.085 5.819 14.446-6.874-.153-6.091z" fill="#fff"/><path data-name="Path 468" d="M825.259 160.026h-1.838l3.573 26.2 2.544 9.537 2.118 2.578 1.455-2.756.077-9.9z" fill="#00b77b"/><path data-name="Path 469" d="M829.071 132.665s6.6 8.644 4.219 16.131c-1.973 2.654-5.615 2.348-6.091 3.028s-.392 6.041-.238 7.317c-1.123 2.246-8.486 1.283-9.9-1.174-.766-1.327-.153-7.963-.153-7.963l-5.82-4.39 9.495-14.446z" fill="#f5bec3"/><path data-name="Path 470" d="M830.228 132.529c1.69-.28-4.561-6.67-8.3-6.466s-13.476 3.471-14.157 8.712.136 11.979 3.608 14.429 5.921 1.429 5.853.885-4.424-2.655-3.4-5.99 4.968.885 5.581.885-5.656-9.733 10.815-12.455z" fill="#404863"/><path data-name="Path 471" d="M813.935 182.2s.63 10.833.63 16.471-1.26 17.51-1.26 17.51-.56-32.2-.21-35.168.84 1.187.84 1.187z" fill="#656c83"/><path data-name="Path 472" d="M809.152 118.658c-.1 3.743-.352 6.542-.719 7.1a10.032 10.032 0 0 1-2.1 1.871c-1.407 1.024-3.263 2.207-4.974 3.247-.048.032-.112.064-.16.1-.464.288-.912.56-1.327.816a162.59 162.59 0 0 1-3.087 1.807v18.81L785.848 140.4l-.479-.528s-.272.192-.784.528c-1.36.911-4.367 2.895-8.061 5.278-9.853 6.35-24.7 15.451-26.759 14.123-3.135-2.015-2.911-33.812-1.344-36.723.656-1.216 10.573-6.734 22.009-12.748.064-.032.112-.064.176-.1 15.85-8.317 34.548-17.514 35.587-17.386 1.9.24 2.8 10.093 2.975 18.97.048 2.43.032 4.786-.016 6.844z" fill="#e1e2e5"/><path data-name="Path 473" d="M801.331 126.607c-.032 1.392-.064 2.848-.128 4.367-.464.288-.912.56-1.327.816a162.59 162.59 0 0 1-3.087 1.807v18.81L785.848 140.4l-.479-.528s-.272.192-.784.528c-1.36.911-4.367 2.895-8.061 5.278-.016-3.183 0-6.446.032-9.533.016-.72.016-1.439.032-2.143.048-2.879.112-5.566.176-7.885.016-.24.016-.48.016-.7.032-.624.048-1.232.064-1.791.1-3.375.192-5.5.192-5.5l2.911-.431 2.111-.32 18.7-2.8c.621.245.733 5.267.573 12.032z" fill="#e1e2e5"/><path data-name="Path 474" d="M790.279 118.21h-.179l.1 6.638s-8.365-1.631-9.293.1a1.221 1.221 0 0 1-.48.464 1.429 1.429 0 0 1-.416.192h-.016a1.453 1.453 0 0 1-.319.128 10.794 10.794 0 0 1-2.911.384 13.643 13.643 0 0 1-4.751-.656 2.155 2.155 0 0 1-1.215-.816c-.224-.432-.368-3.423-.384-7.741-.032-1.951-.016-4.175.016-6.574.064-.032.112-.064.176-.1.176-.1.352-.176.528-.272 10.524-5.518 22.216-11.372 29.093-14.6-.159 5.807.826 18.425-.091 21.665-.989 3.489-8.002 1.055-9.858 1.188z" fill="#8b91a0"/><path data-name="Path 475" d="M771.814 116.926l-9.01-.179V134h28.382v-16.64h-11.25l.511 8.269-8.625-.51z" fill="#00b77b"/><path data-name="Path 476" d="M790.279 118.21a.717.717 0 0 0-.176.016v-.016z" fill="#404863"/><path data-name="Path 477" d="M779.275 124.3s1.429 4.356.681 6.33-.545 5.376-2.382 5.445-4.8.578-5.377 0-.409-11.435.068-12.524 6.449.411 7.01.749z" fill="#f5bec3"/><path data-name="Path 478" d="M803.871 218.616l-9.01-.185V236.3h28.382v-17.235h-11.25l.511 8.563-8.625-.529z" fill="#00b77b"/><path data-name="Path 479" d="M811.536 226.666s1.429 4.356.681 6.33-.545 5.377-2.382 5.445-4.8.578-5.377 0-.409-11.434.068-12.523 6.449.408 7.01.748z" fill="#f5bec3"/><g data-name="Group 195"><path data-name="Path 480" d="M836.533 123.38a3.167 3.167 0 0 1 .32-1.487 7.612 7.612 0 0 1 .928-1.327 7.342 7.342 0 0 0 .687-.944 1.683 1.683 0 0 0 .224-.863 1.044 1.044 0 0 0-.383-.856 1.659 1.659 0 0 0-1.073-.313 3.89 3.89 0 0 0-1.447.305 6.371 6.371 0 0 0-1.495.864l-.672-1.505a4.792 4.792 0 0 1 1.7-.943 6.46 6.46 0 0 1 2.079-.351 4.277 4.277 0 0 1 1.727.328 2.738 2.738 0 0 1 1.175.927 2.31 2.31 0 0 1 .425 1.367 2.643 2.643 0 0 1-.4 1.456 8.635 8.635 0 0 1-1.151 1.376 13.616 13.616 0 0 0-.985 1.151 2.225 2.225 0 0 0-.407 1.023l-.064.433h-1.184zm-.5 3.983v-2.207h2.24v2.207z" fill="#404863"/></g></g></svg>