<svg xmlns="http://www.w3.org/2000/svg" width="316.42" height="297.371" viewBox="0 0 316.42 297.371"><g data-name="Group 112" transform="translate(-101.313 -587.276)"><path data-name="Path 124" d="M302.926 642.935a3.8 3.8 0 0 0-1.127 0v2.647l1.093-1.317z" fill="#404863"/><path data-name="Path 125" d="M417.733 798.947c0 47.33-70.84 85.7-158.21 85.7-42.61 0-81.28-9.12-109.72-23.96-16.51-8.61-29.57-19.14-37.95-30.93-6.81-9.56-10.54-19.95-10.54-30.81 0-47.33 70.83-85.69 158.21-85.69s158.21 38.36 158.21 85.69z" fill="#b4b5c1"/><path data-name="Path 126" d="M417.723 792.8c0 47.33-70.83 85.7-158.2 85.7a272.9 272.9 0 0 1-69.17-8.6c-24.29-6.41-45.09-16.08-60.46-27.96-18.01-13.91-28.58-30.85-28.58-49.14 0-.79.02-1.57.06-2.35 1.49-29.9 31.26-55.99 75.36-70.68 24.08-8.03 52.44-12.66 82.79-12.66 87.37-.003 158.2 38.367 158.2 85.69z" fill="#e1e2e5"/><path data-name="Path 127" d="M184.116 764.855l-82.74 25.59c1.49-29.9 31.26-55.99 75.36-70.68z" fill="#b4b5c1"/><path data-name="Rectangle 1463" fill="#b4b5c1" d="M198.555 757.75h1.648v32.239h-1.648z"/><path data-name="Rectangle 1464" fill="#b4b5c1" d="M244.905 732.412h1.648v32.239h-1.648z"/><path data-name="Path 128" d="M242.292 587.787a8.943 8.943 0 0 0-5.833-.055c-3.212 1.055-59.154 34.245-72.712 42.3a5.137 5.137 0 0 0-2.467 5.136c2.846 20.359 17.568 125.645 17.774 126.977.215 1.386 3.492 4.064 8.848 1.935" fill="#b4b5c1"/><path data-name="Path 129" d="M164.159 636.386l18.006 123.5a4.967 4.967 0 0 0 7.213 3.688l73.4-38.283a4.965 4.965 0 0 0 2.629-5.043l-16.659-128.357a4.968 4.968 0 0 0-7.41-3.664l-74.747 43.14a4.967 4.967 0 0 0-2.432 5.019z" fill="#f5f6f8"/><path data-name="Path 130" d="M198.555 789.989c-5.562 0-7.107 4.326-7.107 4.326h2.163s1.339-2.987 6.747-2.987 5.253 4.223 5.253 4.223h1.854c0-4.584-7.21-5.717-7.21-5.717" fill="#b4b5c1"/><ellipse data-name="Ellipse 51" cx="32.548" cy="16.48" rx="32.548" ry="16.48" transform="translate(261.528 793.666)" fill="#b4b5c1"/><path data-name="Path 131" d="M291 794.023c-.275.824-1.786 5.493-6.18 7.553s-3.708 5.219-1.511 5.631 10.437-2.884 11.536-2.335 1.785-7.416.824-8.926-4.669-1.923-4.669-1.923z" fill="#404863"/><path data-name="Path 132" d="M303.753 803.1s-.824 8.24-.412 9.476.824 5.768 3.3 5.9 3.3-5.493 3.3-7a54.828 54.828 0 0 0-1.1-8.789 2.91 2.91 0 0 0-2.747-1.373 3.247 3.247 0 0 0-2.341 1.786z" fill="#404863"/><path data-name="Path 133" d="M244.9 764.651c-5.562 0-7.107 4.326-7.107 4.326h2.163s1.339-2.987 6.747-2.987 5.253 4.223 5.253 4.223h1.854c0-4.584-7.21-5.717-7.21-5.717" fill="#b4b5c1"/><path data-name="Path 134" d="M280.028 694.817a480.336 480.336 0 0 0 7.931 102.073l9.476-1.1s-7-75.327-3.708-75.327 8.549 82.3 8.549 82.3l8.24 3.09c.285-37.446-2.4-68.191-4.738-105.266a61.745 61.745 0 0 1-25.75-5.77z" fill="#656c83"/><path data-name="Path 135" d="M208.031 620.76c-2.266-.206-12.36 6.18-12.772 7.416s2.884 11.948 3.914 12.36 13.39-4.944 14.42-5.974-5.562-13.802-5.562-13.802z" fill="#99e9ce"/><path data-name="Path 136" d="M195.413 662.353c-2.239-.406-12.859 5.062-13.379 6.257s1.815 12.156 2.805 12.657 13.775-3.739 14.892-4.674-4.318-14.24-4.318-14.24z" fill="#99e9ce"/><path data-name="Path 137" d="M216.338 651.275c-2.266-.206-12.36 6.18-12.772 7.416s2.884 11.948 3.914 12.36 13.39-4.944 14.42-5.974-5.562-13.802-5.562-13.802z" fill="#99e9ce"/><path data-name="Path 138" d="M224 672.977c-2.266-.206-12.36 6.18-12.772 7.416s2.884 11.948 3.914 12.36 13.39-4.944 14.42-5.974S224 672.977 224 672.977z" fill="#99e9ce"/><path data-name="Path 139" d="M210.2 709.812c-2.188-.623-13.293 3.777-13.927 4.915s.615 12.276 1.55 12.872 14.076-2.371 15.279-3.192-2.902-14.595-2.902-14.595z" fill="#99e9ce"/><path data-name="Path 140" d="M202.505 686.31c-2.128-.389-12.232 4.795-12.728 5.93s1.709 11.561 2.649 12.039 13.1-3.536 14.166-4.424-4.087-13.545-4.087-13.545z" fill="#99e9ce"/><path data-name="Path 141" d="M235.407 641.211c-.63-.229-11.743 6.4-12.143 7.051s3.173 11.626 3.721 11.752 13.518-4.963 13.711-5.68-4.658-12.894-5.289-13.123z" fill="#00b77b"/><path data-name="Path 142" d="M244.2 665.42c-2.2-.2-12.021 6.01-12.422 7.212s2.8 11.621 3.807 12.022 13.023-4.809 14.025-5.81-5.41-13.424-5.41-13.424z" fill="#99e9ce"/><path data-name="Path 143" d="M290.964 642.664a17.566 17.566 0 0 0-3.511-.1c-.351.223-.223 3.606-.223 3.606l4.6-.447z" fill="#404863"/><path data-name="Path 144" d="M303.766 648.075c.52.74.98 1.29.98 1.29-.54 1.75-2.24 3.58-3.63 4.92a41.376 41.376 0 0 1-6.4 3.82 24.778 24.778 0 0 1-4.03 1.82c-.63.1-1.93-1.22-2.81-3.55l.08-6.4s-.07-4.47 3.03-5.82a.076.076 0 0 1 .04-.01 1.56 1.56 0 0 0-.23-.85h-.01a6.652 6.652 0 0 0-3.55-2.76c-1.95-.62-3.29-13.29-1.03-15.45s11.63-1.73 14.11.31c1.01.82 1.45 2.82 1.75 3.85s2.92-.48 2.96 2.19-2.78 2.89-2.78 2.89v4.12s.06 5.14-.02 6.48v.09a4.842 4.842 0 0 0 .93 2.17 2.661 2.661 0 0 0 .05.42c.02.11.22.27.56.47z" fill="#f5bec3"/><path data-name="Path 145" d="M290.986 644.155c-3.1 1.35-3.03 5.82-3.03 5.82l-.08 6.4a14.66 14.66 0 0 1-.87-6c.32-5.53 3.57-6.17 3.98-6.22z" fill="#f5bec3"/><path data-name="Path 146" d="M298.98 701.718c-1.545.515-3.914-.721-7.313.206s-7.519-2.06-8.034-3.605.1-53.251 3.914-53.972c0 0 1.4 13.8 2.987 14.523s12.223-11.158 12.223-11.158z" fill="#00b77b"/><path data-name="Path 147" d="M314.736 710.915s-7.28-1.37-8.92.14c0 0 .27-8.65-1.38-8.92s-8.34 3.77-8.34 3.77l-1.38-47.8-.27-9.47s5.77-.98 7.78-3.71a3.235 3.235 0 0 0 .7-1.99s.11 3.02.23 4.25a2.661 2.661 0 0 0 .05.42c.02.11.22.27.56.47 1.71 1.01 6.85 3.06 8.91 5.58 1.48 1.8 2.06 57.26 2.06 57.26z" fill="#404863"/><path data-name="Path 148" d="M293.418 625.807c6.526-1.242 7.415 4.095 8.74 3.873 2.907-.486 2.97 3.949-.12 4.564l.064 5.569a51.678 51.678 0 0 1 3.862-3.766c1.548-1.244 2.467-3.924 2.234-7.617-.426-6.723-4.829-11.2-12.447-11.468-19.913-.7-23.964 12.962-2.333 8.845z" fill="#404863"/><path data-name="Path 149" d="M313.606 709.958s.773 13.956.155 15.4-3.039 2.627-4.069 2.163-2.317-6.334-2.678-6.283-.1 1.442-.669 1.6-1.339-4.532-1.082-5.047 2.266-7.777 2.112-8.807 5.15-.932 6.231.974z" fill="#f5bec3"/><path data-name="Path 150" d="M249.781 674.457L237.558 657.5a.957.957 0 0 0-1.133-.241.775.775 0 0 0-.412.927l12.7 17.3s.55.447 1 .035.068-1.064.068-1.064z" fill="#656c83"/><path data-name="Path 151" d="M259.428 678.337c.949-.03 1.03 6.129.515 6.283s-8.137.052-9.476-1.493-1.03-.979-1.648-1.185-1.9-1.287-1.9-2.163-.258-4.274.36-4.944 2.215-3.193 4.738-1.545 5.763 5.099 7.411 5.047z" fill="#f5bec3"/><path data-name="Path 152" d="M242.932 769.228c.766.255.542 2.266-1.245 3.287s-34.723 19.149-36.255 19.149-12.447 2.745-9.383 2.745 3.5.5 7.276.574c.97-1.971 44.841-25.372 45.639-25.212-1.245-.607-6.798-.798-6.032-.543z" fill="#b4b5c1"/><path data-name="Path 153" d="M291.026 644.145a.076.076 0 0 0-.04.01c-3.1 1.35-3.03 5.82-3.03 5.82l-.08 6.4-.6 47.82c-4.4 0-11.4-6.05-11.4-6.05v-13.87s-14.49 1.99-16.34 1.51-2-9.06-.97-8.92 14.08-1.24 16.48-2.61 2.54-13.46 2.96-16.62 3.22-12.29 6.18-13.87c1.71-.92 4.53-.76 6.6-.47h.01a1.56 1.56 0 0 1 .23.85z" fill="#404863"/><path data-name="Path 154" d="M304.175 663.865s-.63 10.833-.63 16.471 1.26 17.51 1.26 17.51.56-32.2.21-35.168-.84 1.187-.84 1.187z" fill="#2b3142"/><g data-name="Group 111"><g data-name="Group 109" fill="#b4b5c1"><path data-name="Path 155" d="M156.78 810.086s9.682-.8 10.25-.9c1.291-.207 2.147-4.031 1.027-4.645-.454-.249-9.77-4.184-9.77-4.184z"/><ellipse data-name="Ellipse 52" cx="5.002" cy="3.424" rx="5.002" ry="3.424" transform="rotate(-83.34 531.388 319.016)"/><path data-name="Path 156" d="M156.978 805.042c1.388-.17-7.669 1.54-7.965 4.68s-3.295 6.871-4.865 6.309-1.057-5.566-2.925-4.8-5.428 3.824-7.227 2.177-2.925-6.011-1.469-5.69 4.563 1.139 3.684-1.08.5-6.669 2.436-5.006 4.854 4.725 5.722 2.786 2.593-5.744 4.665-2.78 2.566 4.062 7.944 3.404z"/><path data-name="Path 157" d="M156.978 805.042s-7.17 1.006-13.374 2.488c-4.64 1.108-8.748 2.695-8.864 3.167"/><path data-name="Path 158" d="M143.922 807.5s.921 5.953 1.176 6.024"/><path data-name="Path 159" d="M138.854 808.842s-.921-5.954-1.176-6.024"/><path data-name="Path 160" d="M147.913 806.624a25.773 25.773 0 0 0-.131-2.6 9.6 9.6 0 0 0-.49-2.411"/></g><g data-name="Group 110"><path data-name="Path 161" d="M160.313 792.62s2.815 13.934 3.044 14.745c.521 1.84 6.223 2.434 6.926.7.284-.7 4.418-14.911 4.418-14.911z" fill="#404863"/><ellipse data-name="Ellipse 53" cx="7.319" cy="5.009" rx="7.319" ry="5.009" transform="translate(160.255 787.005)" fill="#805b59"/><path data-name="Path 162" d="M167.678 792.05c.482 1.988-3.543-10.883-8.157-10.78s-10.545-3.619-10-6 7.909-2.482 6.481-5.067-6.481-7.238-4.394-10.133 8.239-5.274 8.019-3.1-.879 6.824 2.2 5.17 9.777-.414 7.69 2.688-6.042 7.859-3.076 8.79 8.788 2.791 4.834 6.307-5.464 4.421-3.597 12.125z" fill="#00b77b"/><path data-name="Path 163" d="M167.678 792.05s-2.678-10.25-5.891-19.013c-2.4-6.555-5.4-12.255-6.11-12.344" fill="none" stroke="#33d29c" stroke-miterlimit="10" stroke-width=".313"/><path data-name="Path 164" d="M161.89 773.494s-8.495 2.351-8.554 2.733" fill="none" stroke="#33d29c" stroke-miterlimit="10" stroke-width=".157"/><path data-name="Path 165" d="M159.072 766.357s8.495-2.351 8.554-2.733" fill="none" stroke="#33d29c" stroke-miterlimit="10" stroke-width=".157"/><path data-name="Path 166" d="M163.836 779.145a37.882 37.882 0 0 0 3.749-.631 13.983 13.983 0 0 0 3.421-1.124" fill="none" stroke="#33d29c" stroke-miterlimit="10" stroke-width=".157"/></g></g></g></svg>