<svg xmlns="http://www.w3.org/2000/svg" width="274.322" height="283.46" viewBox="0 0 274.322 283.46">
  <g id="Group_115" data-name="Group 115" transform="translate(-677.981 -587.276)">
    <path id="Path_167" data-name="Path 167" d="M742.129,654.845s-16.692,8.678-18.122,11.332,3.318,29.811,10.465,29.607,18.58-9.155,18.58-9.155Z" fill="#656c83"/>
    <path id="Path_168" data-name="Path 168" d="M749.241,692.959s-12.047,7.079-12.8,9.6.408,5.377,2.382,7.35,25.046-10.821,23.617-12.863S753.6,690.3,749.241,692.959Z" fill="#8b91a0"/>
    <path id="Path_169" data-name="Path 169" d="M748.9,685.779a117.54,117.54,0,0,0-1.361,13.374c-.032,5.479,1.246,7.587,1.412,8.1.612,1.905,17.441.741,19.482-.952s1.906-16.364-2.586-18.057S748.9,685.779,748.9,685.779Z" fill="#2b3142"/>
    <ellipse id="Ellipse_54" data-name="Ellipse 54" cx="137.144" cy="82.967" rx="137.144" ry="82.967" transform="translate(677.981 704.802)" fill="#b4b5c1"/>
    <path id="Path_170" data-name="Path 170" d="M952.3,781.4c0,45.82-61.4,82.96-137.15,82.96-56.96,0-105.81-21-126.53-50.91-6.83-9.86-10.61-20.69-10.61-32.05,0-.58.01-1.15.03-1.72.89-26.58,22.45-50.09,55.35-64.89,22.83-10.28,51.12-16.36,81.76-16.36C890.9,698.427,952.3,735.577,952.3,781.4Z" fill="#e1e2e5"/>
    <path id="Path_171" data-name="Path 171" d="M808.9,730.393s6.844,6.109,10.247,7.062,9.8,6.262,7.419,9.325-17.913,8-24.91,8.848-31.649.544-34.3-3.4a4.453,4.453,0,0,1,.816-6.4S807.059,729.985,808.9,730.393Z" fill="#b4b5c1"/>
    <path id="Path_172" data-name="Path 172" d="M802.065,736.476c-.953.272-2.042,3.369-1.157,4.8s12.864,7.827,14.974,7.861,6.67-1.259,5.989-3.913-10.447-5.888-10.447-8.644Z" fill="#404863"/>
    <path id="Path_173" data-name="Path 173" d="M784.905,745.707l.272,63.365-55.538-33.895-.068-60.915" fill="#8b91a0"/>
    <g id="Group_114" data-name="Group 114">
      <path id="Path_174" data-name="Path 174" d="M889.6,750.873c-.192.365-17.37,6.85-17.37,6.85l-.894-6.893,8.788-2.085Z" fill="#b4b5c1"/>
      <path id="Path_175" data-name="Path 175" d="M877.784,733s2.5,16.616,2.627,17.513c.178,1.3,8.353,1.452,9.227.329.525-.673,6.127-17.689,6.127-17.689Z" fill="#404863"/>
      <ellipse id="Ellipse_55" data-name="Ellipse 55" cx="9.038" cy="5.373" rx="9.038" ry="5.373" transform="translate(877.75 727.184)" fill="#805b59"/>
      <path id="Path_176" data-name="Path 176" d="M886.892,731.826c-.61,2.851,4.484-15.6,10.325-15.456s13.348-5.19,12.653-8.6-10.012-3.558-8.2-7.264,8.2-10.379,5.562-14.53-10.429-7.561-10.151-4.448,1.113,9.785-2.781,7.413-12.375-.593-9.733,3.855,7.648,11.268,3.893,12.6-11.123,4-6.118,9.044S889.256,720.78,886.892,731.826Z" fill="#00b77b"/>
      <path id="Path_177" data-name="Path 177" d="M886.892,731.826s3.395-14.7,7.457-27.262c3.037-9.4,6.842-17.572,7.734-17.7" fill="none" stroke="#008756" stroke-miterlimit="10" stroke-width="0.422"/>
      <path id="Path_178" data-name="Path 178" d="M894.218,705.219s2.782,1.248,5.6,2.207c2.567.873,5,1.691,5.227,1.713" fill="none" stroke="#008756" stroke-miterlimit="10" stroke-width="0.211"/>
      <path id="Path_179" data-name="Path 179" d="M897.786,694.987s-3.287-.842-6.222-1.849c-2.413-.827-4.573-1.823-4.607-2.071" fill="none" stroke="#008756" stroke-miterlimit="10" stroke-width="0.211"/>
      <path id="Path_180" data-name="Path 180" d="M891.755,713.322a42.649,42.649,0,0,1-4.746-.905,16.325,16.325,0,0,1-4.33-1.611" fill="none" stroke="#008756" stroke-miterlimit="10" stroke-width="0.211"/>
    </g>
    <path id="Path_181" data-name="Path 181" d="M874.326,691.362l-.608,71.287L820.441,736.93V724.854Z" fill="#404863"/>
    <path id="Path_182" data-name="Path 182" d="M873.11,692.117,872.5,763.4l-53.277-25.719V725.61Z" fill="#404863"/>
    <path id="Path_183" data-name="Path 183" d="M874.342,689.555l-1.232.768-52.67,32.725V658.318Z" fill="#404863"/>
    <path id="Path_184" data-name="Path 184" d="M776.917,733.141c-.953.272-2.042,3.369-1.158,4.8s14.089,10.55,16.2,10.584,6.67-1.259,5.99-3.914-11.673-8.61-11.673-11.366Z" fill="#404863"/>
    <path id="Path_185" data-name="Path 185" d="M811.424,736.578s-1.676-6.151-3.718-9.554-11.026-7.079-11.026-7.079l1.633,12.524,3.752,4.007A8.468,8.468,0,0,0,811.424,736.578Z" fill="#2b3142"/>
    <path id="Path_186" data-name="Path 186" d="M874.342,689.555l-.016,1.471v.336l-53.885,33.492-37.507,23.3-55.341-31.445,1.248-.768,53.821,30.581,37.779-23.48,52.67-32.725Z" fill="#8b91a0"/>
    <path id="Path_187" data-name="Path 187" d="M873.111,690.322l-52.67,32.725-37.779,23.48-53.821-30.581,91.6-55.837.272-.16Z" fill="#8b91a0"/>
    <path id="Path_188" data-name="Path 188" d="M782.933,809.857l-94.31,3.59c-6.83-9.86-10.61-20.69-10.61-32.05,0-.58.01-1.15.03-1.72.89-26.58,22.45-50.09,55.35-64.89Z" fill="#b4b5c1"/>
    <path id="Path_189" data-name="Path 189" d="M874.342,689.555l-1.232.768-52.67,32.725-37.779,23.48-53.821-30.581-1.519-.864,93.12-56.764Z" fill="#656c83"/>
    <path id="Path_190" data-name="Path 190" d="M785.177,809.072l-2.246.817-.817-3.454Z" fill="#8b91a0"/>
    <path id="Path_191" data-name="Path 191" d="M782.659,746.523l.272,63.365-55.538-33.895-.068-60.915" fill="#404863"/>
    <path id="Path_192" data-name="Path 192" d="M901.419,609.157c-.081,3.173-.3,5.545-.61,6.019a8.51,8.51,0,0,1-1.776,1.587c-1.193.867-2.766,1.87-4.216,2.752-.041.027-.1.054-.136.081-.393.244-.772.474-1.125.691-1.491.9-2.616,1.532-2.616,1.532v15.943l-9.273-10.181-.407-.448s-.23.163-.664.448c-1.152.772-3.7,2.453-6.833,4.473-8.35,5.382-20.931,13.1-22.68,11.971-2.657-1.708-2.467-28.659-1.139-31.126.556-1.03,8.961-5.707,18.654-10.8.055-.027.095-.054.149-.081,13.435-7.049,29.283-14.845,30.164-14.736,1.613.2,2.372,8.554,2.521,16.078C901.473,605.416,901.46,607.408,901.419,609.157Z" fill="#e1e2e5"/>
    <path id="Path_193" data-name="Path 193" d="M757.034,635.5s-15.926,9.24-15.926,18.938v28.586c0,2.348,12.047,12.455,28.381,12.455,0,0-1.633-5.257.051-6.329s14.957-9.342,17.918-8.219a19.579,19.579,0,0,1,5.461,3.42s4.9-4.7,7.555-3.777c1.225-1.991-15.262-10.311-15.262-15.008s-1.736-24.6-6.126-27.565S757.034,635.5,757.034,635.5Z" fill="#404863"/>
    <path id="Path_194" data-name="Path 194" d="M794.094,684.451s-24.026,11.435-24.639,14.7,10.89,12.387,15.11,14.02,9.46-.136,9.46-.136l28.79-16.062s-10.685-17.9-18.24-17.084Z" fill="#e1e2e5"/>
    <path id="Path_195" data-name="Path 195" d="M775.945,697.712l1.327,1.343-1.535.72-1.344-1.344Z" fill="#c1c1c1"/>
    <path id="Path_196" data-name="Path 196" d="M778.584,698.432l-.736.352-1.328-1.344.736-.336Z" fill="#c1c1c1"/>
    <path id="Path_197" data-name="Path 197" d="M780.055,697.744l-.9.416-1.312-1.344.88-.4Z" fill="#c1c1c1"/>
    <path id="Path_198" data-name="Path 198" d="M781.538,697.083l-.881.424-1.338-1.371.881-.408Z" fill="#c1c1c1"/>
    <path id="Path_199" data-name="Path 199" d="M793.427,691.426l-.864.4-.576.288-.88.416-.592.272-.72.336-.592.288-1.136.528-.576.272-.864.416-.592.272-.88.416-.592.272-.72.352-1.312-1.328.736-.336.592-.272.88-.416.592-.272.864-.4.592-.272,1.136-.528.576-.288h.016l.72-.336.592-.272.88-.416.592-.272.864-.4Z" fill="#c1c1c1"/>
    <path id="Path_200" data-name="Path 200" d="M793.89,689.347l1.248,1.264-1.12.544-1.264-1.28Z" fill="#c1c1c1"/>
    <path id="Path_201" data-name="Path 201" d="M795.2,688.723l1.264,1.28-.736.336-1.248-1.264Z" fill="#c1c1c1"/>
    <path id="Path_202" data-name="Path 202" d="M796.673,688.035l1.248,1.264-.88.416-1.248-1.264Z" fill="#c1c1c1"/>
    <path id="Path_203" data-name="Path 203" d="M798.129,687.363l1.248,1.263-.864.4-1.248-1.263Z" fill="#c1c1c1"/>
    <path id="Path_204" data-name="Path 204" d="M799.776,686.6l1.248,1.247-1.072.5-1.232-1.247Z" fill="#c1c1c1"/>
    <path id="Path_205" data-name="Path 205" d="M801.1,685.972l1.232,1.247-.72.336-1.232-1.247Z" fill="#c1c1c1"/>
    <path id="Path_206" data-name="Path 206" d="M802.591,685.284l1.232,1.247-.9.416L801.7,685.7Z" fill="#c1c1c1"/>
    <path id="Path_207" data-name="Path 207" d="M804.031,684.612l1.232,1.232-.864.4-1.232-1.232Z" fill="#c1c1c1"/>
    <path id="Path_208" data-name="Path 208" d="M806.382,685.316l-.528.256-1.232-1.232.4-.192Z" fill="#c1c1c1"/>
    <path id="Path_209" data-name="Path 209" d="M777.736,699.519l.656.672-1.519.72-.672-.672Z" fill="#c1c1c1"/>
    <path id="Path_210" data-name="Path 210" d="M779.7,699.567l-.72.352-.672-.672.736-.352Z" fill="#c1c1c1"/>
    <path id="Path_211" data-name="Path 211" d="M781.175,698.879l-.88.416-.672-.672.88-.416Z" fill="#c1c1c1"/>
    <path id="Path_212" data-name="Path 212" d="M782.7,698.241l-.881.424-.685-.685.881-.424Z" fill="#c1c1c1"/>
    <path id="Path_213" data-name="Path 213" d="M785.029,696.064l.672.672-.736.352-.656-.672Z" fill="#c1c1c1"/>
    <path id="Path_214" data-name="Path 214" d="M787.157,696.048l-.88.416-.656-.672.88-.416Z" fill="#c1c1c1"/>
    <path id="Path_215" data-name="Path 215" d="M788.612,695.361l-.864.416-.672-.672.864-.416Z" fill="#c1c1c1"/>
    <path id="Path_216" data-name="Path 216" d="M790.324,694.561l-1.12.528-.672-.672,1.12-.544h.016Z" fill="#c1c1c1"/>
    <path id="Path_217" data-name="Path 217" d="M791.635,693.937l-.72.336-.672-.672.736-.336Z" fill="#c1c1c1"/>
    <path id="Path_218" data-name="Path 218" d="M793.107,693.249l-.88.416-.672-.688.88-.416Z" fill="#c1c1c1"/>
    <path id="Path_219" data-name="Path 219" d="M794.562,692.562l-.864.4-.672-.672.864-.4Z" fill="#c1c1c1"/>
    <path id="Path_220" data-name="Path 220" d="M795.6,691.074l.672.672-1.135.544-.672-.688Z" fill="#c1c1c1"/>
    <path id="Path_221" data-name="Path 221" d="M796.913,690.45l.672.688-.736.336-.656-.672Z" fill="#c1c1c1"/>
    <path id="Path_222" data-name="Path 222" d="M798.385,689.763l.672.672-.9.416-.672-.672Z" fill="#c1c1c1"/>
    <path id="Path_223" data-name="Path 223" d="M799.824,689.075l.672.688-.864.4-.656-.672Z" fill="#c1c1c1"/>
    <path id="Path_224" data-name="Path 224" d="M801.472,688.307l.672.672-1.056.5-.672-.672Z" fill="#c1c1c1"/>
    <path id="Path_225" data-name="Path 225" d="M802.783,687.683l.672.672-.72.336-.672-.672Z" fill="#c1c1c1"/>
    <path id="Path_226" data-name="Path 226" d="M804.271,686.98l.656.672-.864.432h-.016l-.672-.688Z" fill="#c1c1c1"/>
    <path id="Path_227" data-name="Path 227" d="M805.71,686.292l.672.688-.864.4-.672-.672Z" fill="#c1c1c1"/>
    <path id="Path_228" data-name="Path 228" d="M807.63,686.388l-.656.32-.672-.688.576-.272Z" fill="#c1c1c1"/>
    <path id="Path_229" data-name="Path 229" d="M778.856,700.655l.688.688-1.519.72-.7-.688Z" fill="#c1c1c1"/>
    <path id="Path_230" data-name="Path 230" d="M780.855,700.735l-.736.336-.688-.688.736-.352Z" fill="#c1c1c1"/>
    <path id="Path_231" data-name="Path 231" d="M782.326,700.031l-.9.416-.688-.688.9-.416Z" fill="#c1c1c1"/>
    <path id="Path_232" data-name="Path 232" d="M783.855,699.416l-.881.424-.7-.7.881-.424Z" fill="#c1c1c1"/>
    <path id="Path_233" data-name="Path 233" d="M786.149,697.2l.688.7-.72.336-.688-.688Z" fill="#c1c1c1"/>
    <path id="Path_234" data-name="Path 234" d="M788.308,697.2l-1.556.722-.688-.688,1.556-.722Z" fill="#c1c1c1"/>
    <path id="Path_235" data-name="Path 235" d="M789.764,696.528l-.864.4-.688-.688.864-.416Z" fill="#c1c1c1"/>
    <path id="Path_236" data-name="Path 236" d="M791.475,695.713l-1.135.528-.688-.688,1.135-.528Z" fill="#c1c1c1"/>
    <path id="Path_237" data-name="Path 237" d="M792.787,695.089l-.72.352-.688-.7.72-.336Z" fill="#c1c1c1"/>
    <path id="Path_238" data-name="Path 238" d="M794.258,694.4l-.88.416-.688-.688.88-.416Z" fill="#c1c1c1"/>
    <path id="Path_239" data-name="Path 239" d="M795.7,693.713l-.864.416-.672-.688.848-.416Z" fill="#c1c1c1"/>
    <path id="Path_240" data-name="Path 240" d="M796.737,692.21l.672.7-1.12.528-.688-.688,1.12-.544Z" fill="#c1c1c1"/>
    <path id="Path_241" data-name="Path 241" d="M798.049,691.6l.672.688-.72.336-.688-.688Z" fill="#c1c1c1"/>
    <path id="Path_242" data-name="Path 242" d="M799.52,690.9l.672.7-.88.416-.672-.688.864-.432Z" fill="#c1c1c1"/>
    <path id="Path_243" data-name="Path 243" d="M800.96,690.226l.688.688-.864.4-.688-.688Z" fill="#c1c1c1"/>
    <path id="Path_244" data-name="Path 244" d="M802.607,689.443l.688.688-1.072.512-.672-.688Z" fill="#c1c1c1"/>
    <path id="Path_245" data-name="Path 245" d="M803.919,688.819l.688.7-.72.336-.672-.688Z" fill="#c1c1c1"/>
    <path id="Path_246" data-name="Path 246" d="M805.406,688.131l.672.688-.88.416-.688-.688Z" fill="#c1c1c1"/>
    <path id="Path_247" data-name="Path 247" d="M806.846,687.443l.688.688-.864.416-.672-.688Z" fill="#c1c1c1"/>
    <path id="Path_248" data-name="Path 248" d="M808.893,687.491l-.784.368-.672-.688.7-.336Z" fill="#c1c1c1"/>
    <path id="Path_249" data-name="Path 249" d="M779.991,701.806l.576.576-1.519.72-.576-.576Z" fill="#c1c1c1"/>
    <path id="Path_250" data-name="Path 250" d="M781.879,701.758l-.736.352-.56-.576.72-.352Z" fill="#c1c1c1"/>
    <path id="Path_251" data-name="Path 251" d="M783.35,701.071l-.88.416-.576-.576.88-.416Z" fill="#c1c1c1"/>
    <path id="Path_252" data-name="Path 252" d="M784.9,700.477l-.881.424-.571-.587.881-.424Z" fill="#c1c1c1"/>
    <path id="Path_253" data-name="Path 253" d="M787.186,697.653l1.057,1.07-1.1.556-1.058-1.086Z" fill="#c1c1c1"/>
    <path id="Path_254" data-name="Path 254" d="M790.787,697.552l-.864.416-.576-.576.88-.4Z" fill="#c1c1c1"/>
    <path id="Path_255" data-name="Path 255" d="M792.5,696.752l-1.136.528-.56-.576,1.136-.528Z" fill="#c1c1c1"/>
    <path id="Path_256" data-name="Path 256" d="M793.81,696.128l-.72.336-.576-.56.736-.352Z" fill="#c1c1c1"/>
    <path id="Path_257" data-name="Path 257" d="M795.282,695.441l-.88.416-.576-.576.9-.416Z" fill="#c1c1c1"/>
    <path id="Path_258" data-name="Path 258" d="M796.721,694.753l-.864.4-.56-.56.864-.416Z" fill="#c1c1c1"/>
    <path id="Path_259" data-name="Path 259" d="M797.873,693.377l.56.56-1.12.544-.56-.576Z" fill="#c1c1c1"/>
    <path id="Path_260" data-name="Path 260" d="M799.185,692.754l.56.576-.72.336-.56-.56Z" fill="#c1c1c1"/>
    <path id="Path_261" data-name="Path 261" d="M800.656,692.066l.56.56-.88.416-.56-.56Z" fill="#c1c1c1"/>
    <path id="Path_262" data-name="Path 262" d="M802.112,691.378l.544.56-.848.416-.56-.56Z" fill="#c1c1c1"/>
    <path id="Path_263" data-name="Path 263" d="M803.759,690.61l.56.56-1.072.5-.56-.56Z" fill="#c1c1c1"/>
    <path id="Path_264" data-name="Path 264" d="M808,688.611l.56.56-.864.4-.592.272-.88.416-.592.288-.72.336-.56-.56.72-.336.592-.288.88-.416.592-.272Z" fill="#c1c1c1"/>
    <path id="Path_265" data-name="Path 265" d="M810.029,688.467l-.9.416-.56-.56.832-.384Z" fill="#c1c1c1"/>
    <path id="Path_266" data-name="Path 266" d="M781.015,702.83l.688.688-1.52.72-.688-.688Z" fill="#c1c1c1"/>
    <path id="Path_267" data-name="Path 267" d="M783.014,702.91l-.736.336-.688-.688.736-.336Z" fill="#c1c1c1"/>
    <path id="Path_268" data-name="Path 268" d="M784.47,702.206l-.88.416-.672-.688.88-.416Z" fill="#c1c1c1"/>
    <path id="Path_269" data-name="Path 269" d="M786.058,701.635l-.881.424-.7-.7.881-.408Z" fill="#c1c1c1"/>
    <path id="Path_270" data-name="Path 270" d="M788.324,699.391l.672.688-.72.336-.688-.688Z" fill="#c1c1c1"/>
    <path id="Path_271" data-name="Path 271" d="M790.468,699.375l-.9.416-.672-.672.88-.416h.016Z" fill="#c1c1c1"/>
    <path id="Path_272" data-name="Path 272" d="M791.907,698.688l-.864.416-.672-.688.864-.4Z" fill="#c1c1c1"/>
    <path id="Path_273" data-name="Path 273" d="M793.618,697.888l-1.12.528-.672-.672,1.12-.544Z" fill="#c1c1c1"/>
    <path id="Path_274" data-name="Path 274" d="M794.93,697.264l-.72.336-.672-.672.72-.336h.016Z" fill="#c1c1c1"/>
    <path id="Path_275" data-name="Path 275" d="M796.4,696.576l-.88.416-.672-.688.88-.416Z" fill="#c1c1c1"/>
    <path id="Path_276" data-name="Path 276" d="M797.841,695.888l-.848.4-.672-.672.864-.4Z" fill="#c1c1c1"/>
    <path id="Path_277" data-name="Path 277" d="M798.9,694.4l.672.672-1.136.544-.672-.688Z" fill="#c1c1c1"/>
    <path id="Path_278" data-name="Path 278" d="M800.208,693.777l.656.672-.72.352-.656-.672Z" fill="#c1c1c1"/>
    <path id="Path_279" data-name="Path 279" d="M801.68,693.089l.656.672-.88.416-.656-.672Z" fill="#c1c1c1"/>
    <path id="Path_280" data-name="Path 280" d="M803.135,692.418l.656.656-.864.416-.656-.672.848-.4Z" fill="#c1c1c1"/>
    <path id="Path_281" data-name="Path 281" d="M809.021,689.635l.64.656-.848.416-.592.272-.88.416-.592.288-.72.336-.592.288-1.072.5-.656-.672,1.072-.5.592-.288.72-.336.592-.272.88-.416.592-.288Z" fill="#c1c1c1"/>
    <path id="Path_282" data-name="Path 282" d="M811.276,689.539l-1.024.48-.656-.656.944-.448Z" fill="#c1c1c1"/>
    <path id="Path_283" data-name="Path 283" d="M789.444,700.527l.624.624-.72.352-.624-.64Z" fill="#c1c1c1"/>
    <path id="Path_284" data-name="Path 284" d="M791.539,700.463l-.88.416-.624-.624.88-.416Z" fill="#c1c1c1"/>
    <path id="Path_285" data-name="Path 285" d="M792.995,699.775l-.88.416-.624-.64.88-.4Z" fill="#c1c1c1"/>
    <path id="Path_286" data-name="Path 286" d="M794.706,698.975l-1.136.528-.624-.624,1.135-.544Z" fill="#c1c1c1"/>
    <path id="Path_287" data-name="Path 287" d="M796.018,698.352l-.736.336-.624-.624.736-.336Z" fill="#c1c1c1"/>
    <path id="Path_288" data-name="Path 288" d="M797.473,697.664l-.88.416-.624-.64.88-.416h.016Z" fill="#c1c1c1"/>
    <path id="Path_289" data-name="Path 289" d="M798.929,696.976l-.864.4-.624-.624.864-.4Z" fill="#c1c1c1"/>
    <path id="Path_290" data-name="Path 290" d="M800.016,695.537l.624.624-1.12.544H799.5l-.608-.64Z" fill="#c1c1c1"/>
    <path id="Path_291" data-name="Path 291" d="M801.328,694.913l.624.64-.72.336-.624-.624Z" fill="#c1c1c1"/>
    <path id="Path_292" data-name="Path 292" d="M812.476,690.578l-1.136.528-.592.288-.848.4-.592.272-.88.432-.592.272-.72.336-.608.288-1.056.5-.576.288h-.016l-.848.4-.592.272-.88.416-.624-.624.88-.416.592-.272.864-.416.576-.272,1.072-.5.592-.288.72-.336.592-.288.88-.416.592-.272.864-.4.576-.288,1.072-.5Z" fill="#c1c1c1"/>
    <path id="Path_293" data-name="Path 293" d="M783.222,705.069l.672.672-1.487.7-.672-.672Z" fill="#c1c1c1"/>
    <path id="Path_294" data-name="Path 294" d="M785.205,705.117l-.736.352-.656-.672.72-.352Z" fill="#c1c1c1"/>
    <path id="Path_295" data-name="Path 295" d="M786.677,704.43l-.88.416-.672-.672.88-.416Z" fill="#c1c1c1"/>
    <path id="Path_296" data-name="Path 296" d="M788.116,703.742l-.848.416-.672-.672.848-.416Z" fill="#c1c1c1"/>
    <path id="Path_297" data-name="Path 297" d="M790.532,701.614l.672.688-.736.336-.672-.672Z" fill="#c1c1c1"/>
    <path id="Path_298" data-name="Path 298" d="M792.659,701.6l-.88.416-.672-.672.88-.416Z" fill="#c1c1c1"/>
    <path id="Path_299" data-name="Path 299" d="M794.114,700.927l-.864.4-.672-.672.864-.416Z" fill="#c1c1c1"/>
    <path id="Path_300" data-name="Path 300" d="M795.826,700.111l-1.12.528h-.016l-.672-.672,1.136-.528h.016Z" fill="#c1c1c1"/>
    <path id="Path_301" data-name="Path 301" d="M797.137,699.487l-.72.352-.672-.688.72-.336Z" fill="#c1c1c1"/>
    <path id="Path_302" data-name="Path 302" d="M798.609,698.8l-.88.416-.672-.672.88-.432Z" fill="#c1c1c1"/>
    <path id="Path_303" data-name="Path 303" d="M800.064,698.112l-.864.416-.672-.688.848-.4Z" fill="#c1c1c1"/>
    <path id="Path_304" data-name="Path 304" d="M801.1,696.624l.672.688-1.136.528-.672-.688Z" fill="#c1c1c1"/>
    <path id="Path_305" data-name="Path 305" d="M802.415,696l.672.688-.72.352-.688-.688Z" fill="#c1c1c1"/>
    <path id="Path_306" data-name="Path 306" d="M813.74,691.666l-1.264.592-.592.272-.848.416-.592.272-.88.416-.592.288-.72.336-.608.272-1.056.512-.592.272-.848.416-.592.272-.88.416-.688-.688.9-.416.576-.272.864-.416.592-.272,1.056-.5.592-.288.72-.336.592-.288.88-.416.592-.272.864-.416.576-.272,1.2-.56Z" fill="#c1c1c1"/>
    <path id="Path_307" data-name="Path 307" d="M784.374,706.221l.672.688-1.487.7-.688-.688Z" fill="#c1c1c1"/>
    <path id="Path_308" data-name="Path 308" d="M786.357,706.285l-.72.352-.688-.688.72-.352Z" fill="#c1c1c1"/>
    <path id="Path_309" data-name="Path 309" d="M787.828,705.6l-.88.416-.688-.688.88-.416Z" fill="#c1c1c1"/>
    <path id="Path_310" data-name="Path 310" d="M789.268,704.909l-.848.416-.688-.7.864-.4Z" fill="#c1c1c1"/>
    <path id="Path_311" data-name="Path 311" d="M791.667,702.766l.672.688-.72.352-.672-.688Z" fill="#c1c1c1"/>
    <path id="Path_312" data-name="Path 312" d="M793.81,702.766l-.88.416-.688-.688.9-.416Z" fill="#c1c1c1"/>
    <path id="Path_313" data-name="Path 313" d="M795.266,702.078l-.864.416-.688-.688.864-.416Z" fill="#c1c1c1"/>
    <path id="Path_314" data-name="Path 314" d="M796.977,701.263l-1.136.544-.672-.688,1.12-.544Z" fill="#c1c1c1"/>
    <path id="Path_315" data-name="Path 315" d="M798.289,700.655l-.72.336-.688-.688.72-.336Z" fill="#c1c1c1"/>
    <path id="Path_316" data-name="Path 316" d="M799.76,699.951l-.88.416h-.016l-.672-.688.88-.416Z" fill="#c1c1c1"/>
    <path id="Path_317" data-name="Path 317" d="M801.2,699.279l-.848.4-.688-.688.864-.4Z" fill="#c1c1c1"/>
    <path id="Path_318" data-name="Path 318" d="M802.24,697.776l.688.688-1.136.528-.688-.688Z" fill="#c1c1c1"/>
    <path id="Path_319" data-name="Path 319" d="M815,692.754l-1.392.656-.576.272-.864.416-.592.272-.88.416-.592.288-.72.336-.592.272-1.072.512-.576.272-.864.416-.592.272-.88.416-.576.272-.736.352-.672-.688.72-.352.576-.272.9-.416.576-.288.864-.4.592-.272,1.056-.512.592-.272.72-.336h.016l.576-.288.9-.416.576-.272.864-.416.592-.272,1.311-.624Z" fill="#c1c1c1"/>
    <path id="Path_320" data-name="Path 320" d="M799.313,701.678l-.72.352-.576-.576.72-.352Z" fill="#c1c1c1"/>
    <path id="Path_321" data-name="Path 321" d="M800.784,700.991l-.88.416-.576-.576.88-.416Z" fill="#c1c1c1"/>
    <path id="Path_322" data-name="Path 322" d="M802.224,700.3l-.848.416-.576-.576.864-.416Z" fill="#c1c1c1"/>
    <path id="Path_323" data-name="Path 323" d="M803.375,698.927l.576.576-1.136.528-.576-.576Z" fill="#c1c1c1"/>
    <path id="Path_324" data-name="Path 324" d="M816.139,693.745l-1.488.7-.592.272-.864.416-.576.272-.9.416-.592.272-.72.352-.592.272-1.056.512-.592.272-.864.4-.576.288h-.016l-.88.416-.576.272-.736.336-.56-.56.72-.352.592-.272.88-.416.592-.272.864-.416.576-.272,1.072-.5.592-.288.72-.336.592-.288.88-.416.592-.272.864-.4.576-.288,1.44-.672Z" fill="#c1c1c1"/>
    <path id="Path_325" data-name="Path 325" d="M786.517,708.38l1.44,1.471-1.472.688-1.455-1.455Z" fill="#c1c1c1"/>
    <path id="Path_326" data-name="Path 326" d="M789.284,709.244l-.736.336-1.456-1.471.736-.336Z" fill="#c1c1c1"/>
    <path id="Path_327" data-name="Path 327" d="M790.755,708.556l-.88.4h-.016l-1.455-1.471.9-.416Z" fill="#c1c1c1"/>
    <path id="Path_328" data-name="Path 328" d="M792.211,707.868l-.864.4-1.472-1.471.864-.4Z" fill="#c1c1c1"/>
    <path id="Path_329" data-name="Path 329" d="M792.5,705.565l1.487,1.487-1.184.544-1.471-1.487Z" fill="#c1c1c1"/>
    <path id="Path_330" data-name="Path 330" d="M793.81,704.941l1.487,1.487-.736.352-1.471-1.5Z" fill="#c1c1c1"/>
    <path id="Path_331" data-name="Path 331" d="M796.769,705.741l-.88.416-1.487-1.487.88-.416Z" fill="#c1c1c1"/>
    <path id="Path_332" data-name="Path 332" d="M798.225,705.069l-.864.4-1.487-1.5.864-.4Z" fill="#c1c1c1"/>
    <path id="Path_333" data-name="Path 333" d="M799.952,704.27l-1.136.528-1.5-1.5,1.136-.544Z" fill="#c1c1c1"/>
    <path id="Path_334" data-name="Path 334" d="M801.264,703.662l-.72.336-1.5-1.519.72-.336Z" fill="#c1c1c1"/>
    <path id="Path_335" data-name="Path 335" d="M802.735,702.974l-.88.416-1.5-1.536.88-.416Z" fill="#c1c1c1"/>
    <path id="Path_336" data-name="Path 336" d="M804.191,702.286l-.864.416-1.5-1.536.848-.4Z" fill="#c1c1c1"/>
    <path id="Path_337" data-name="Path 337" d="M804.4,699.951l1.519,1.536-1.136.528-1.52-1.519Z" fill="#c1c1c1"/>
    <path id="Path_338" data-name="Path 338" d="M818.394,695.681l-1.727.8-.592.272-.864.416-.592.272-.88.416-.592.272-.736.336-.592.272-1.072.5-.576.288h-.016l-.864.4-.576.272-.9.416-.592.272-.72.336-1.52-1.535.72-.352.592-.272.88-.416.576-.272.864-.4h.016l.576-.288,1.056-.5.608-.288.72-.336.592-.272.88-.416.576-.288h.016l.848-.4.592-.272,1.551-.736Z" fill="#c1c1c1"/>
    <path id="Path_339" data-name="Path 339" d="M802.771,688.331c-1.664,1.967-9.188,22.46-8.984,24.4s30.424-11.945,31.445-13.578,10.719-23.584,9.086-27.157S803.894,687,802.771,688.331Z" fill="#ecebef"/>
    <path id="Path_340" data-name="Path 340" d="M768.468,689.046c-.818-.25-1.072,5.257-.561,5.717s14.114,1.2,15.594.944,1.072-2.5,1.634-2.7,1.608-.179,1.608-1.3-.587-2.067-.485-2.272a1.384,1.384,0,0,0,.051-1.786c-.715-.766-6.61-1.353-9.01-1.149S770.306,689.607,768.468,689.046Z" fill="#f5bec3"/>
    <path id="Path_341" data-name="Path 341" d="M807.434,684.077c-.851.306-1.838.715-1.906,1.5s-1.327,1.6-2.042,1.8a3.675,3.675,0,0,0-1.4.851c-1.259.987-7.113-4.458-9.631-5.309-.238-2.178,3.233-1.838,3.233-1.838s10.277-1.157,11.4-.442S808.284,683.771,807.434,684.077Z" fill="#f5bec3"/>
    <path id="Path_342" data-name="Path 342" d="M765.1,639.667s8.644,34.439,7.9,37.5-2.586,4.084-3.335,4.084-3.266-1.906-3.266-3.88-.409-31.308-2.859-37.162Z" fill="#00b77b"/>
    <path id="Path_343" data-name="Path 343" d="M771.327,616.713s2.756,11.315-.306,15.263-4.288.885-4.969,1.021,1.089,5.1-.612,6.534-6.534,1.769-7.9-1.021.476-5.037-.953-6.534-6.194-7.759-6.33-9.256S757.068,608.869,771.327,616.713Z" fill="#f5bec3"/>
    <path id="Path_344" data-name="Path 344" d="M772.722,617c1.357.291,4.22-2.995,2.45-5.445s-7.078-5.445-10.481-5.718-14.157,1.5-16.335,8.44,1.634,10.992,3.505,10.992-1.463-3.267.443-4.968,4.492,1.293,4.492,3.437,1.889,1.82,2.144,1.565S755.775,613.361,772.722,617Z" fill="#656c83"/>
    <path id="Path_345" data-name="Path 345" d="M752.813,655.063s.9,7.943,1.045,12.088-.817,12.917-.817,12.917-1.372-23.655-1.1-25.849S752.813,655.063,752.813,655.063Z" fill="#272e3a"/>
    <path id="Path_346" data-name="Path 346" d="M873.719,762.649l-1.217.755-.053-1.989Z" fill="#404863"/>
    <line id="Line_11" data-name="Line 11" x1="0.496" y1="0.432" transform="translate(806.382 685.316)" fill="none"/>
  </g>
</svg>
